<svg width="472" height="486" viewBox="0 0 472 486" fill="none" xmlns="http://www.w3.org/2000/svg">
        <path
          d="M226.168 74.4928C226.796 74.116 227.675 73.7392 228.178 74.2416C228.68 74.744 228.429 75.6232 227.927 76.2512C226.796 78.0096 225.415 79.5168 223.782 80.7728C226.545 79.5168 229.434 78.6376 232.448 78.2608C233.076 78.1352 233.83 78.2608 233.955 78.7632C234.081 79.2656 233.579 79.6424 233.202 79.8936C230.69 81.652 227.801 83.0336 224.661 83.7872C226.419 83.536 228.303 83.6616 230.062 84.2896C230.439 84.4152 230.69 84.5408 230.815 84.792C231.067 85.42 230.439 86.048 229.811 86.4248C223.531 89.9416 216.12 90.8208 208.961 91.3232C208.71 91.3232 208.333 91.3232 208.082 91.1976C207.579 90.8208 207.705 90.0672 207.956 89.5648C210.845 82.0288 219.511 78.8888 226.168 74.4928Z"
          fill="white" />
        <path
          d="M208.835 92.5792C208.458 92.5792 208.081 92.4536 207.83 92.328C207.077 91.8256 206.825 90.8208 207.328 89.6904C209.589 83.2848 215.492 79.8936 221.144 76.628C222.651 75.7488 224.284 74.8696 225.665 73.8648C227.424 72.7344 228.303 73.2368 228.805 73.6136C229.559 74.3672 229.559 75.4976 228.68 76.7536C228.303 77.3816 227.801 77.884 227.424 78.512C229.057 78.0096 230.689 77.6328 232.448 77.5072C233.704 77.3816 234.709 77.7584 234.96 78.7632C235.085 79.2656 234.96 80.0192 233.955 80.7728C232.573 81.7776 231.066 82.5312 229.433 83.2848C229.81 83.4104 230.187 83.536 230.564 83.6616C231.066 83.7872 231.569 84.164 231.82 84.6664C232.322 85.6712 231.82 86.676 230.438 87.4296C223.907 91.072 216.371 91.9512 209.212 92.4536L208.835 92.5792ZM227.549 74.9952C227.173 74.9952 226.921 75.1208 226.67 75.372C225.163 76.3768 223.53 77.256 222.023 78.1352C216.622 81.2752 211.096 84.4152 208.961 90.1928C208.835 90.444 208.835 90.6952 208.835 90.9464C208.835 90.9464 208.961 90.8208 209.086 90.8208C215.994 90.3184 223.279 89.4392 229.559 86.048C229.81 85.9224 230.061 85.7968 230.187 85.5456C230.061 85.5456 230.061 85.5456 229.936 85.42C228.429 84.792 226.67 84.6664 225.037 84.9176C224.535 85.0432 224.158 84.6664 224.033 84.164C223.907 83.6616 224.284 83.2848 224.661 83.1592C227.549 82.4056 230.438 81.1496 232.825 79.3912L232.95 79.2656C232.825 79.2656 232.699 79.2656 232.573 79.2656C229.685 79.6424 226.796 80.396 224.158 81.652C223.656 81.7776 223.153 81.652 223.028 81.1496C222.902 80.7728 223.028 80.396 223.279 80.1448C224.786 78.8888 226.168 77.5072 227.298 75.8744C227.424 75.6232 227.549 75.2464 227.549 74.9952Z"
          fill="#231F20" />
        <path
          d="M131.09 84.792C131.09 84.792 216.874 78.512 216.874 79.0144C216.874 79.5168 213.86 92.956 213.86 92.956C213.86 92.956 140.133 117.322 131.09 109.033C122.046 100.743 131.09 84.792 131.09 84.792Z"
          fill="#68E1FD" />
        <path
          d="M407.662 413.613H26.3401C25.8377 413.613 25.4609 413.236 25.4609 412.734C25.4609 412.231 25.8377 411.854 26.3401 411.854H407.536C408.039 411.854 408.415 412.231 408.415 412.734C408.415 413.236 408.039 413.613 407.662 413.613Z"
          fill="#D1D3D4" />
        <path
          d="M104.462 427.178C104.337 427.178 104.086 427.178 103.96 427.178C102.076 426.926 100.694 425.168 100.946 423.158L146.287 105.767C146.664 103.883 148.422 102.627 150.432 102.878C152.19 103.255 153.446 104.888 153.321 106.646L107.979 424.038C107.728 425.796 106.221 427.178 104.462 427.178Z"
          fill="#231F20" />
        <path
          d="M44.9272 427.178C44.8016 427.178 44.5504 427.178 44.4248 427.178C42.5408 426.926 41.1592 425.168 41.4104 423.158L86.752 105.767C87.0032 103.883 88.7616 102.502 90.7712 102.753C92.7808 103.004 94.0368 104.762 93.7856 106.772L48.444 424.163C48.1928 425.922 46.6856 427.178 44.9272 427.178Z"
          fill="#231F20" />
        <path
          d="M107.601 386.609H50.7043C48.8203 386.609 47.1875 384.976 47.1875 383.092C47.1875 381.208 48.8203 379.575 50.7043 379.575H107.601C109.485 379.575 111.118 381.208 111.118 383.092C111.118 385.102 109.485 386.609 107.601 386.609Z"
          fill="#231F20" />
        <path
          d="M114.134 341.016H57.3625C55.4785 341.016 53.8457 339.383 53.8457 337.499C53.8457 335.615 55.4785 333.982 57.3625 333.982H114.134C116.018 333.982 117.651 335.615 117.651 337.499C117.651 339.383 116.018 341.016 114.134 341.016Z"
          fill="#231F20" />
        <path
          d="M120.664 295.298H63.7668C61.8828 295.298 60.25 293.665 60.25 291.781C60.25 289.897 61.8828 288.264 63.7668 288.264H120.538C122.422 288.264 124.055 289.897 124.055 291.781C124.18 293.665 122.548 295.298 120.664 295.298Z"
          fill="#231F20" />
        <path
          d="M127.194 249.579H70.4231C68.5391 249.579 66.9062 247.946 66.9062 246.062C66.9062 244.178 68.5391 242.546 70.4231 242.546H127.194C129.078 242.546 130.711 244.178 130.711 246.062C130.711 248.072 129.078 249.579 127.194 249.579Z"
          fill="#231F20" />
        <path
          d="M133.726 203.986H76.8293C74.9453 203.986 73.3125 202.354 73.3125 200.47C73.3125 198.586 74.9453 196.953 76.8293 196.953H133.726C135.61 196.953 137.243 198.586 137.243 200.47C137.243 202.354 135.61 203.986 133.726 203.986Z"
          fill="#231F20" />
        <path
          d="M140.257 158.268H83.4856C81.6016 158.268 79.9688 156.635 79.9688 154.751C79.9688 152.867 81.6016 151.234 83.4856 151.234H140.257C142.141 151.234 143.774 152.867 143.774 154.751C143.774 156.635 142.141 158.268 140.257 158.268Z"
          fill="#231F20" />
        <path
          d="M165.881 138.549C167.639 133.399 169.398 128.25 171.156 123.1C172.161 120.462 173.166 117.825 174.296 115.187C175.426 111.796 178.943 109.661 182.46 110.163C186.605 110.666 190.75 111.545 194.894 112.173C197.155 112.675 199.29 112.926 201.677 113.052C203.31 113.052 204.942 112.55 206.324 111.545C211.097 107.023 215.618 102.25 220.266 97.352C221.773 95.5936 222.401 93.0816 221.647 90.8208C220.517 85.7968 219.386 80.7728 218.382 75.7488C217.879 73.7392 217.754 71.7296 217.879 69.72C218.005 68.2128 218.758 66.9568 219.889 65.952C227.55 60.928 235.966 57.0344 244.883 54.5224C247.521 53.6432 250.535 54.648 252.042 57.0344C255.182 61.4304 258.574 65.7008 261.588 70.0968C263.974 73.6136 267.114 75.372 271.385 75.1208C276.911 74.744 282.438 74.6184 287.964 74.3672C289.974 74.2416 291.858 73.1112 292.988 71.3528C294.998 68.464 296.756 65.4496 298.766 62.4352C300.398 59.9232 302.031 57.4112 303.79 54.8992C305.297 52.2616 308.562 51.1312 311.451 52.2616C319.113 54.8992 326.774 57.6624 334.31 60.5512C337.45 61.8072 338.706 64.696 338.455 67.9616C338.078 72.232 337.074 76.3768 336.446 80.6472C336.069 82.6568 335.818 84.6664 335.692 86.676C335.315 89.3136 336.32 91.8256 338.204 93.7096C342.223 97.4776 346.368 101.246 350.262 105.265C352.522 107.651 356.039 108.656 359.179 107.777C364.706 106.646 370.106 105.265 375.507 104.134C379.778 103.255 382.792 104.511 384.676 108.53C387.816 115.062 390.83 121.593 393.719 128.25C395.854 133.022 395.101 135.911 390.956 139.177C388.193 141.438 385.178 143.322 382.29 145.457C380.28 146.964 378.145 148.597 376.261 150.23C374.628 151.611 373.623 153.746 373.749 155.882C373.874 161.659 374 167.311 374.251 173.089C374.377 176.229 376.135 179.118 378.773 180.75C381.913 182.634 385.053 184.393 388.193 186.277C390.077 187.407 391.961 188.663 393.845 190.045C396.482 191.803 397.613 195.32 396.357 198.209C393.845 205.117 391.333 212.025 388.695 218.807C388.318 219.812 387.69 220.817 387.062 221.822C385.806 224.082 383.169 225.338 380.657 224.836C375.633 224.082 370.734 223.203 365.71 222.324C365.334 222.198 364.957 222.198 364.58 222.198C359.933 221.068 356.29 222.575 353.15 226.218C350.387 229.483 347.122 232.498 344.233 235.638C341.344 238.401 340.339 242.546 341.47 246.439C342.726 251.212 343.856 256.11 344.861 261.009C345.866 266.158 344.861 268.419 340.214 270.68C333.431 273.946 326.649 276.96 319.741 279.849C315.973 281.482 313.21 280.728 310.698 277.462C308.186 274.197 305.674 270.554 303.162 267.163C297.886 259.627 296.505 258.999 287.336 259.502C283.694 259.627 280.177 259.878 276.534 260.13C273.018 260.13 269.878 262.014 268.119 265.028C265.984 268.67 263.849 272.313 261.588 275.83C260.332 277.714 258.95 279.346 257.443 280.979C256.062 282.612 253.801 283.24 251.791 282.486C244.506 279.849 237.347 277.086 230.062 274.322C229.058 273.946 228.178 273.318 227.299 272.69C225.038 271.434 223.782 268.796 224.285 266.284C225.038 261.386 225.918 256.487 226.671 251.589C226.922 250.082 227.048 248.574 227.174 247.067C227.425 244.555 226.546 242.169 224.662 240.41C220.768 236.768 216.874 233.126 212.855 229.483C210.594 227.222 207.329 226.469 204.314 227.348C199.542 228.604 194.643 229.609 189.745 230.739L189.242 230.865C182.962 231.995 180.827 231.242 178.064 225.338C175.05 218.933 172.286 212.276 169.523 205.619C167.89 201.6 168.518 199.214 172.161 196.576C176.054 193.687 179.948 190.798 183.967 188.161C187.986 185.9 190.373 181.378 189.87 176.731C189.494 171.582 189.368 166.432 189.117 161.282C189.117 159.147 187.986 157.012 186.102 155.882C181.832 153.118 177.436 150.481 173.166 147.718C170.402 145.959 167.514 144.075 166.383 140.684L165.881 138.549ZM329.914 167.311C329.914 140.056 308.06 118.453 280.554 118.327C257.946 118.202 232.323 138.046 232.323 167.437C232.449 194.19 254.052 215.918 280.805 216.17C312.33 216.17 331.296 188.914 329.914 167.311Z"
          fill="white" />
        <path
          d="M253.047 283.366C252.293 283.366 251.54 283.24 250.912 282.989L245.009 280.728C239.733 278.718 234.458 276.834 229.183 274.825C228.304 274.448 227.425 273.946 226.671 273.443L226.294 273.192C223.657 271.81 222.275 268.796 222.903 265.907L223.908 259.376C224.41 256.613 224.787 253.85 225.289 251.086C225.541 249.579 225.666 248.198 225.666 246.69C225.917 244.43 225.164 242.294 223.405 240.787C220.014 237.647 216.623 234.507 213.232 231.242L211.725 229.86C209.715 227.85 206.701 227.097 203.937 227.976C200.546 228.855 197.155 229.609 193.764 230.362L189.242 231.367L188.865 231.493C181.957 232.749 179.571 231.618 176.808 225.464C173.417 218.305 170.402 211.146 168.267 205.745C166.509 201.349 167.262 198.586 171.156 195.697C175.677 192.306 179.445 189.542 183.088 187.282C186.856 185.146 188.991 181.002 188.489 176.606C188.237 173.34 188.112 170.2 187.986 166.934C187.861 164.925 187.861 163.041 187.735 161.031C187.735 159.147 186.73 157.389 185.097 156.384L179.822 152.993C177.31 151.36 174.798 149.727 172.286 148.22C169.397 146.336 166.383 144.326 165.127 140.684C165.127 140.558 165.127 140.558 165.127 140.433V138.549C165.127 138.423 165.127 138.298 165.127 138.298L166.634 133.902C167.89 130.259 169.146 126.491 170.402 122.849C171.407 120.086 172.537 117.322 173.542 114.936C174.798 111.168 178.692 108.782 182.585 109.41C185.349 109.661 188.112 110.163 190.875 110.666C192.257 110.917 193.638 111.168 195.145 111.419L196.778 111.67C198.411 112.047 200.044 112.173 201.677 112.298C203.184 112.298 204.565 111.922 205.696 111.042C210.845 106.144 215.618 101.12 219.512 96.9752C220.893 95.3424 221.396 93.2072 220.768 91.1976C220.265 88.9368 219.763 86.676 219.261 84.5408C218.633 81.7776 218.005 78.8888 217.377 76.1256C216.874 74.116 216.623 71.9808 216.874 69.8456C217 68.0872 217.879 66.4544 219.261 65.324C227.048 60.3 235.463 56.4064 244.506 53.8944C247.521 52.8896 250.786 54.1456 252.545 56.7832L255.936 61.4304C257.945 64.1936 260.206 67.0824 262.09 69.9712C264.477 73.488 267.24 74.8696 271.133 74.6184C274.776 74.3672 278.418 74.2416 281.935 74.116L287.838 73.8648C289.597 73.7392 291.229 72.7344 292.109 71.2272C293.239 69.4688 294.369 67.7104 295.5 65.952C296.253 64.696 297.007 63.5656 297.886 62.3096L298.765 61.0536C300.147 58.9184 301.529 56.7832 303.036 54.7736C304.794 51.8848 308.437 50.6288 311.702 51.8848C320.871 55.0248 327.905 57.6624 334.561 60.1744C337.827 61.4304 339.585 64.5704 339.209 68.464C338.957 71.3528 338.455 74.116 337.953 76.8792C337.701 78.2608 337.45 79.768 337.199 81.1496C336.948 83.0336 336.571 85.0432 336.445 87.0528C336.194 89.4392 337.073 91.7 338.706 93.3328L341.595 95.9704C344.609 98.8592 347.749 101.748 350.764 104.762C352.773 107.023 356.039 107.902 358.928 107.023C361.565 106.395 364.203 105.767 366.966 105.265C369.729 104.762 372.493 104.009 375.256 103.381C380.029 102.376 383.42 103.883 385.429 108.279C388.569 114.81 391.584 121.467 394.473 127.998C396.733 133.148 395.854 136.414 391.333 139.93C389.7 141.312 387.941 142.442 386.183 143.698C384.927 144.578 383.797 145.331 382.541 146.21C380.28 147.843 378.396 149.35 376.512 150.983C375.005 152.239 374.125 154.123 374.251 156.007L374.377 159.524C374.502 164.046 374.628 168.567 374.753 173.089C374.879 175.978 376.386 178.615 378.898 179.997C380.154 180.75 381.536 181.504 382.917 182.383C384.801 183.514 386.56 184.518 388.318 185.649C390.328 186.779 392.212 188.161 393.97 189.542C396.985 191.552 398.241 195.446 396.733 198.711C394.347 205.242 391.835 212.025 389.072 219.31C388.695 220.314 388.067 221.319 387.439 222.198L387.313 222.45C385.806 224.962 382.917 226.343 380.029 225.841L369.981 224.208L364.831 223.329H363.952C359.681 222.324 356.416 223.58 353.401 226.971C351.392 229.358 349.257 231.493 347.121 233.628C346.242 234.507 345.237 235.512 344.358 236.391C341.721 239.029 340.716 242.797 341.846 246.314C342.977 250.961 344.233 255.859 345.237 260.883C346.368 266.535 345.112 269.047 340.088 271.434C333.933 274.448 327.277 277.462 319.615 280.728C315.596 282.486 312.33 281.607 309.567 278.09C307.306 275.327 305.297 272.438 303.287 269.55L302.031 267.666C296.881 260.381 295.877 259.878 286.959 260.381L280.805 260.758L276.157 261.009C273.017 261.009 270.003 262.767 268.37 265.53C267.617 266.786 266.989 267.917 266.235 269.173C264.853 271.559 263.346 274.071 261.839 276.332C260.583 278.216 259.201 279.974 257.569 281.607C256.564 282.612 254.805 283.366 253.047 283.366ZM206.449 225.841C208.836 225.841 211.222 226.846 212.981 228.478L214.488 229.86C217.879 233 221.27 236.266 224.661 239.406C226.671 241.29 227.676 244.053 227.425 246.69C227.299 248.198 227.173 249.705 226.922 251.338C226.545 254.101 226.043 256.864 225.541 259.627C225.164 261.762 224.787 263.898 224.536 266.033C224.159 268.294 225.164 270.554 227.173 271.559L227.55 271.81C228.178 272.313 228.932 272.69 229.811 273.066C235.086 275.076 240.361 276.96 245.637 278.97L251.54 281.23C253.173 281.858 255.182 281.356 256.313 279.974C257.82 278.467 259.201 276.709 260.332 274.95C261.839 272.564 263.346 270.178 264.728 267.791C265.481 266.535 266.109 265.405 266.863 264.149C268.747 260.883 272.264 258.874 276.032 258.874L280.679 258.622L286.833 258.246C296.379 257.743 297.886 258.497 303.413 266.284L304.669 268.168C306.678 270.931 308.688 273.946 310.949 276.583C313.335 279.472 315.596 280.1 318.987 278.718C326.649 275.453 333.305 272.438 339.46 269.55C343.73 267.54 344.609 265.656 343.605 260.883C342.6 256.11 341.344 250.961 340.213 246.439C338.957 242.294 340.088 237.898 343.228 234.884C344.107 233.879 345.112 233 345.991 232.121C348.126 229.986 350.261 227.85 352.145 225.59C355.537 221.57 359.556 220.189 364.454 221.319C364.705 221.319 364.831 221.445 365.082 221.445L365.585 221.57L370.357 222.324L380.405 223.957C382.666 224.334 384.927 223.329 385.932 221.319L386.057 221.068C386.685 220.314 387.062 219.435 387.439 218.556C390.202 211.146 392.714 204.489 395.101 197.958C396.231 195.32 395.226 192.306 392.84 190.798C391.081 189.417 389.197 188.161 387.313 187.03C385.555 185.9 383.671 184.895 381.913 183.765C380.531 183.011 379.275 182.258 377.893 181.378C374.879 179.62 372.995 176.48 372.869 173.089C372.618 168.567 372.618 163.92 372.493 159.398L372.367 155.882C372.241 153.495 373.372 151.109 375.256 149.476C377.14 147.843 379.149 146.21 381.41 144.578C382.666 143.698 383.797 142.819 385.053 141.94C386.811 140.81 388.444 139.554 390.077 138.298C393.97 135.283 394.598 132.771 392.589 128.375C389.7 121.844 386.685 115.187 383.545 108.656C381.787 105.139 379.275 103.883 375.381 104.762C372.618 105.39 369.855 106.018 367.092 106.646C364.329 107.274 361.691 107.902 359.053 108.405C355.537 109.41 351.769 108.279 349.257 105.642C346.242 102.627 343.102 99.7384 340.088 96.8496L337.199 94.212C335.064 92.2024 334.059 89.3136 334.436 86.5504C334.561 84.5408 334.938 82.4056 335.189 80.5216C335.441 79.14 335.692 77.6328 335.943 76.2512C336.445 73.488 336.948 70.7248 337.199 67.9616C337.45 64.8216 336.194 62.4352 333.682 61.4304C327.025 58.9184 319.992 56.4064 310.823 53.1408C308.311 52.2616 305.548 53.1408 304.166 55.4016C302.659 57.4112 301.277 59.5464 299.896 61.6816L299.017 62.9376C298.263 64.068 297.509 65.324 296.63 66.4544C295.5 68.2128 294.369 69.9712 293.239 71.7296C291.983 73.7392 289.848 74.9952 287.587 75.1208C285.703 75.2464 283.693 75.2464 281.684 75.372C278.167 75.4976 274.525 75.6232 271.008 75.8744C266.486 76.2512 263.095 74.4928 260.332 70.5992C258.322 67.7104 256.313 64.8216 254.177 62.0584C253.047 60.5512 251.917 59.044 250.786 57.4112C249.53 55.276 246.893 54.3968 244.632 55.1504C235.84 57.6624 227.55 61.4304 219.889 66.4544C219.009 67.3336 218.381 68.464 218.381 69.5944C218.256 71.4784 218.507 73.488 218.884 75.372C219.512 78.1352 220.14 81.024 220.768 83.7872C221.27 86.048 221.773 88.3088 222.275 90.444C223.029 93.0816 222.401 95.8448 220.642 97.8544C216.623 102.125 211.85 107.149 206.701 112.047C205.193 113.178 203.309 113.806 201.425 113.806C199.667 113.806 197.909 113.554 196.15 113.178C195.648 113.052 195.02 112.926 194.517 112.926L190.247 112.173C187.609 111.67 184.846 111.168 182.083 110.917C178.943 110.414 175.803 112.298 174.798 115.438C173.793 117.825 172.663 120.588 171.658 123.226C170.402 126.868 169.146 130.636 167.89 134.278L166.509 138.549V140.182C167.513 143.196 170.151 144.829 172.789 146.587C175.426 148.346 177.938 149.853 180.45 151.486L185.851 154.877C187.986 156.258 189.242 158.519 189.242 160.906C189.368 162.915 189.368 164.799 189.493 166.809C189.619 169.949 189.745 173.214 189.996 176.354C190.498 181.378 188.112 186.151 183.716 188.538C180.073 190.924 176.305 193.562 171.909 196.827C168.644 199.339 168.016 201.223 169.523 204.866C171.784 210.266 174.673 217.426 178.064 224.585C180.576 229.86 182.209 230.739 188.237 229.609H188.489L188.74 229.483L193.136 228.478C196.527 227.725 199.918 226.971 203.309 226.092C204.44 226.092 205.445 225.966 206.449 225.841ZM281.056 216.923C253.675 216.923 231.444 194.692 231.569 167.311C231.569 154.123 236.845 141.438 246.265 132.269C255.685 122.974 268.37 117.322 280.428 117.322H280.679C308.813 117.448 330.919 139.302 330.919 167.186C331.673 178.992 326.649 191.678 317.605 201.349C308.06 211.397 294.872 217.049 281.056 216.923ZM280.428 119.206C268.873 119.206 256.564 124.607 247.395 133.65C238.352 142.568 233.202 154.751 233.328 167.437C233.328 193.813 254.68 215.165 280.93 215.29H281.056C294.369 215.416 307.055 209.89 316.224 200.218C325.016 190.924 329.789 178.615 329.035 167.437C329.035 140.558 307.809 119.458 280.553 119.332L280.428 119.206Z"
          fill="#231F20" />
        <path
          d="M338.58 286.757C339.082 285.25 339.585 283.617 340.213 282.11C340.464 281.356 340.841 280.477 341.092 279.723C341.469 278.718 342.474 278.09 343.604 278.216C344.86 278.342 346.116 278.593 347.372 278.844C348 278.97 348.754 279.095 349.382 279.095C349.884 279.095 350.386 278.97 350.763 278.593C352.145 277.211 353.526 275.83 354.908 274.322C355.41 273.82 355.536 273.066 355.285 272.313C354.908 270.806 354.657 269.298 354.28 267.791C354.154 267.163 354.029 266.661 354.155 266.033C354.155 265.53 354.406 265.154 354.783 264.902C357.043 263.395 359.555 262.265 362.319 261.511C363.072 261.26 363.951 261.637 364.454 262.265C365.458 263.521 366.338 264.777 367.343 266.158C367.971 267.163 369.101 267.791 370.231 267.666C371.864 267.54 373.497 267.54 375.255 267.414C375.883 267.414 376.386 267.038 376.763 266.535C377.391 265.656 377.893 264.777 378.521 263.898C379.149 263.018 379.526 262.39 380.028 261.637C380.53 260.883 381.41 260.506 382.289 260.883C384.55 261.637 386.81 262.516 389.197 263.395C390.076 263.772 390.578 264.651 390.453 265.656C390.327 266.912 390.076 268.168 389.825 269.424C389.699 270.052 389.699 270.68 389.574 271.182C389.448 271.936 389.825 272.69 390.327 273.318C391.583 274.448 392.714 275.578 393.97 276.709C394.598 277.462 395.728 277.714 396.607 277.462C398.24 277.086 399.873 276.709 401.506 276.332C402.636 275.955 403.766 276.458 404.269 277.588C405.148 279.472 406.153 281.482 406.907 283.491C407.535 284.622 407.283 286.003 406.153 286.631C406.153 286.631 406.027 286.631 406.027 286.757C405.148 287.385 404.269 288.013 403.39 288.641C402.762 289.143 402.134 289.646 401.631 290.022C401.129 290.399 400.878 291.027 400.878 291.781C400.878 293.539 400.878 295.172 401.003 296.93C401.003 297.935 401.506 298.689 402.385 299.191C403.264 299.819 404.269 300.322 405.148 300.824C405.776 301.201 406.278 301.578 406.781 301.954C407.66 302.457 407.911 303.587 407.535 304.466C406.781 306.476 406.027 308.611 405.274 310.621C405.148 310.872 405.022 311.249 404.771 311.5C404.394 312.128 403.641 312.505 402.887 312.379L398.491 311.626H398.115C396.859 311.249 395.477 311.751 394.723 312.882C393.844 313.886 392.965 314.766 392.086 315.645C391.206 316.524 390.955 317.78 391.207 318.91C391.583 320.292 391.96 321.799 392.211 323.306C392.714 324.437 392.086 325.693 391.081 326.07C390.955 326.07 390.955 326.07 390.83 326.195C388.82 327.2 386.81 328.079 384.675 328.958C383.67 329.461 382.54 329.21 381.912 328.205C381.158 327.2 380.405 326.195 379.651 325.065C378.018 322.804 377.642 322.553 374.879 322.804C373.748 322.804 372.743 322.93 371.613 322.93C370.608 322.93 369.603 323.558 369.101 324.437C368.473 325.567 367.845 326.572 367.091 327.702C366.714 328.205 366.338 328.707 365.835 329.21C365.458 329.712 364.705 329.838 364.077 329.712C361.942 328.958 359.681 328.079 357.546 327.326C357.294 327.2 356.918 327.074 356.667 326.823C356.039 326.446 355.662 325.693 355.787 324.939C356.038 323.432 356.29 322.05 356.541 320.543C356.541 320.041 356.667 319.664 356.667 319.162C356.792 318.408 356.415 317.654 355.913 317.152C354.782 316.022 353.526 315.017 352.396 313.886C351.768 313.258 350.763 313.007 349.884 313.258C348.502 313.635 346.995 313.886 345.488 314.263H345.363C343.479 314.64 342.851 314.389 342.097 312.63C341.343 310.872 340.339 308.737 339.585 306.727C339.083 305.848 339.334 304.592 340.339 304.09C340.339 304.09 340.338 304.09 340.464 304.09C341.594 303.21 342.851 302.331 343.981 301.578C345.237 300.824 345.865 299.568 345.739 298.186C345.614 296.679 345.614 295.046 345.488 293.539C345.488 292.911 345.111 292.283 344.609 291.906C343.353 291.153 341.971 290.274 340.715 289.394C339.836 288.892 339.082 288.264 338.706 287.259L338.58 286.757ZM387.69 295.298C387.69 287.259 381.158 280.602 373.12 280.602H372.995C365.082 280.854 358.676 287.259 358.551 295.298C358.551 303.336 365.082 309.867 373.12 309.867C381.158 309.993 387.69 303.587 387.815 295.549C387.69 295.549 387.69 295.423 387.69 295.298Z"
          fill="#D1D3D4" />
        <path
          d="M364.706 330.717C364.455 330.717 364.078 330.717 363.827 330.591L362.194 329.963C360.561 329.335 358.928 328.707 357.295 328.205C357.044 328.079 356.667 327.954 356.416 327.702C355.411 327.2 354.783 325.944 355.035 324.814L355.286 322.93C355.411 322.05 355.537 321.297 355.663 320.418C355.788 320.041 355.788 319.538 355.788 319.162C355.788 318.659 355.663 318.282 355.286 317.906C354.281 317.026 353.276 316.022 352.271 315.142L351.769 314.64C351.267 314.138 350.639 314.012 350.011 314.263L346.996 315.017L345.615 315.268H345.363C343.103 315.645 342.098 315.142 341.093 313.133C340.088 311.123 339.209 308.862 338.581 307.23C337.827 305.848 338.33 304.215 339.711 303.462C341.093 302.457 342.223 301.578 343.354 300.95C344.233 300.447 344.861 299.442 344.735 298.312C344.735 297.307 344.61 296.302 344.61 295.423L344.484 293.665C344.484 293.288 344.233 292.911 343.982 292.786L342.349 291.781L339.963 290.274C338.832 289.771 338.079 288.766 337.576 287.762C337.576 287.636 337.576 287.636 337.576 287.51V286.882C337.576 286.757 337.576 286.631 337.576 286.631L338.079 285.124C338.455 284.119 338.832 283.114 339.209 281.984C339.46 281.23 339.837 280.351 340.214 279.598C340.716 278.216 342.098 277.337 343.605 277.588C344.484 277.714 345.238 277.839 346.117 277.965L347.373 278.216L347.875 278.342C348.378 278.467 348.755 278.467 349.257 278.467C349.508 278.467 349.759 278.342 350.011 278.216C351.518 276.834 352.899 275.327 354.155 274.071C354.407 273.694 354.532 273.318 354.407 272.941C354.281 272.313 354.155 271.559 353.904 270.931C353.653 270.303 353.527 269.298 353.402 268.419C353.276 267.791 353.151 267.038 353.276 266.41C353.276 265.656 353.653 265.028 354.281 264.651C356.667 263.144 359.305 261.888 361.943 261.134C363.073 260.758 364.329 261.26 364.957 262.265L365.962 263.646C366.59 264.526 367.218 265.279 367.846 266.158C368.223 266.912 369.102 267.414 369.981 267.289C371.111 267.163 372.116 267.163 373.247 267.163L375.005 267.038C375.382 267.038 375.633 266.786 375.759 266.535C376.135 266.033 376.387 265.53 376.763 265.028L377.768 263.646C378.145 263.018 378.647 262.39 379.024 261.762C379.778 260.632 381.034 260.255 382.29 260.632C385.053 261.637 387.188 262.39 389.198 263.144C390.454 263.646 391.207 264.902 390.956 266.284C390.831 267.163 390.705 268.042 390.579 268.796C390.454 269.173 390.454 269.675 390.328 270.052C390.203 270.68 390.203 271.182 390.077 271.81C389.951 272.313 390.203 272.815 390.579 273.192L391.459 273.946C392.338 274.825 393.343 275.704 394.222 276.583C394.724 277.086 395.478 277.337 396.106 277.086L398.492 276.583C399.371 276.332 400.125 276.206 401.004 275.955C402.511 275.453 404.144 276.206 404.772 277.714C405.777 279.723 406.656 281.607 407.535 283.617C408.415 285.124 407.912 287.008 406.405 287.887C405.903 288.264 405.4 288.641 404.772 289.018L403.767 289.771C403.139 290.274 402.511 290.65 402.009 291.153C401.758 291.404 401.507 291.781 401.507 292.158V293.162C401.507 294.544 401.507 295.926 401.632 297.307C401.632 297.935 402.009 298.563 402.637 298.814L403.767 299.442L405.4 300.447C406.028 300.824 406.656 301.201 407.159 301.703C408.289 302.457 408.666 303.838 408.163 305.22C407.41 307.23 406.656 309.365 405.777 311.374C405.651 311.751 405.4 312.002 405.275 312.379C404.647 313.384 403.516 313.886 402.386 313.761L397.99 313.007L397.613 312.882C396.608 312.63 395.603 313.007 395.101 313.761C394.473 314.514 393.845 315.142 393.217 315.77L392.463 316.65C391.835 317.278 391.584 318.157 391.835 319.036C392.212 320.543 392.589 321.925 392.84 323.432C393.468 324.939 392.589 326.698 391.082 327.2H390.956C389.072 328.079 387.063 328.958 384.802 329.963C383.42 330.591 381.913 330.214 381.034 328.958C380.406 328.079 379.778 327.2 379.15 326.446L378.773 325.818C377.391 323.809 377.266 323.809 374.754 323.934L371.488 324.06C370.735 324.06 370.107 324.437 369.73 325.065L369.102 326.195C368.599 326.949 368.223 327.702 367.72 328.33C367.343 328.958 366.841 329.461 366.339 329.963C365.962 330.466 365.334 330.717 364.706 330.717ZM350.764 312.254C351.643 312.254 352.523 312.63 353.151 313.258L353.653 313.761C354.658 314.766 355.663 315.645 356.667 316.524C357.421 317.152 357.798 318.157 357.672 319.162C357.672 319.664 357.547 320.166 357.547 320.543L357.17 323.055L356.919 324.939C356.919 325.316 356.919 325.567 357.421 325.944C357.672 326.07 357.798 326.195 358.049 326.321C359.682 326.949 361.315 327.577 362.947 328.079L364.58 328.707C364.831 328.833 365.208 328.707 365.334 328.456C365.711 328.079 366.087 327.577 366.464 327.074C366.967 326.321 367.343 325.693 367.72 324.939L368.348 323.809C368.976 322.678 370.232 321.925 371.614 321.925L374.879 321.799C377.894 321.674 378.647 321.925 380.406 324.437L380.783 325.065C381.411 325.944 381.913 326.698 382.667 327.577C383.043 328.205 383.797 328.33 384.299 328.079C386.56 327.074 388.57 326.195 390.328 325.316C391.333 324.814 391.459 324.562 391.207 323.432C390.956 322.05 390.579 320.543 390.203 319.162C389.826 317.78 390.203 316.147 391.207 315.142L392.087 314.263C392.715 313.635 393.343 313.007 393.971 312.379C394.975 310.998 396.608 310.37 398.241 310.872H398.492L402.888 311.626C403.265 311.751 403.767 311.5 403.893 311.123C404.019 310.872 404.144 310.621 404.27 310.37C405.023 308.36 405.777 306.225 406.531 304.215C406.782 303.713 406.531 303.085 406.028 302.708C405.526 302.331 405.023 301.954 404.395 301.578L402.763 300.573L401.507 299.819C400.376 299.191 399.748 298.061 399.748 296.805C399.748 295.423 399.623 294.042 399.623 292.66V291.655C399.623 290.776 399.999 289.897 400.753 289.269C401.381 288.766 402.009 288.264 402.637 287.762L403.767 287.008C404.27 286.631 404.772 286.254 405.275 285.878C406.279 285.124 406.279 284.747 405.903 283.617C405.023 281.607 404.144 279.723 403.265 277.714C403.014 276.96 402.26 276.583 401.632 276.834H401.507L398.995 277.462L396.608 277.965C395.352 278.342 393.971 277.965 393.091 276.96C392.212 276.081 391.333 275.202 390.328 274.322L389.449 273.569C388.695 272.815 388.319 271.81 388.444 270.806C388.444 270.178 388.57 269.55 388.695 268.922C388.821 268.545 388.821 268.042 388.947 267.666C389.072 266.912 389.198 266.033 389.323 265.279C389.449 264.777 389.198 264.274 388.695 264.023C386.686 263.27 384.676 262.516 381.913 261.511C381.411 261.386 380.908 261.511 380.657 262.014C380.28 262.642 379.778 263.27 379.401 263.898L378.396 265.405C378.019 265.907 377.768 266.535 377.391 267.038C376.889 267.791 376.135 268.294 375.256 268.294L373.498 268.419C372.367 268.419 371.363 268.545 370.358 268.545C368.851 268.67 367.343 268.042 366.59 266.661C365.962 265.782 365.334 265.028 364.831 264.149L363.827 262.767C363.575 262.39 363.073 262.139 362.571 262.265C360.059 263.018 357.547 264.149 355.411 265.53C355.286 265.656 355.286 265.782 355.286 266.033C355.286 266.535 355.286 267.038 355.411 267.54C355.537 268.419 355.788 269.173 355.914 270.052C356.039 270.931 356.165 271.434 356.416 272.062C356.667 273.066 356.416 274.071 355.788 274.825C354.532 276.081 353.151 277.588 351.643 279.095C351.141 279.598 350.387 279.723 349.634 279.723C349.006 279.723 348.503 279.598 347.875 279.598L347.373 279.472L346.117 279.221C345.363 279.095 344.484 278.97 343.731 278.844C343.103 278.718 342.349 279.095 342.223 279.849C341.847 280.602 341.595 281.356 341.344 282.11C340.967 283.114 340.591 284.119 340.339 285.25L339.837 286.882C340.214 287.51 340.716 288.013 341.47 288.39L343.731 289.897L345.363 290.902C346.117 291.404 346.619 292.283 346.619 293.162L346.745 294.921C346.745 295.926 346.871 296.805 346.871 297.81C346.996 299.568 346.243 301.201 344.735 302.08C343.605 302.708 342.6 303.587 341.219 304.592C340.465 305.22 340.339 305.471 340.716 306.225C341.344 307.858 342.223 309.993 343.228 312.128C343.856 313.51 344.107 313.51 345.615 313.258L347.122 312.882L350.136 312.254C350.011 312.254 350.387 312.254 350.764 312.254ZM372.995 310.746C364.455 310.746 357.547 303.838 357.547 295.298C357.547 291.153 359.179 287.259 362.068 284.37C364.957 281.482 368.725 279.849 372.744 279.723C381.285 279.598 388.319 286.506 388.319 295.046C388.319 295.172 388.319 295.172 388.319 295.298C388.444 299.317 386.937 303.085 384.174 305.974C381.536 309.114 377.391 310.872 372.995 310.746ZM372.87 281.482C369.353 281.607 365.962 283.114 363.45 285.626C358.049 290.902 358.049 299.568 363.324 304.969C365.836 307.606 369.353 308.988 372.995 308.988C376.763 308.988 380.406 307.481 383.043 304.718C385.43 302.206 386.811 298.814 386.686 295.298C386.686 287.762 380.657 281.482 372.995 281.482C372.995 281.607 372.87 281.607 372.87 281.482Z"
          fill="#231F20" />
        <path
          d="M194.393 346.417C195.272 342.9 196.151 339.383 197.03 335.866C197.533 334.108 198.035 332.224 198.663 330.466C199.291 328.205 201.426 326.572 203.813 326.698C206.576 326.823 209.339 327.074 212.102 327.326C213.609 327.577 215.117 327.577 216.624 327.451C217.754 327.326 218.759 326.949 219.638 326.195C222.527 322.93 225.29 319.538 228.053 316.022C228.933 314.766 229.184 313.007 228.681 311.626C227.677 308.36 226.546 305.094 225.667 301.829C225.29 300.573 225.039 299.191 224.913 297.935C224.913 296.93 225.29 296.051 226.044 295.298C230.817 291.53 236.217 288.515 241.869 286.38C243.628 285.626 245.637 286.129 246.768 287.636C249.154 290.399 251.541 292.911 253.801 295.8C255.309 297.935 257.946 299.066 260.584 298.563C264.226 297.935 267.869 297.558 271.511 297.182C272.893 296.93 274.023 296.177 274.651 294.921C275.781 292.911 276.912 290.776 277.917 288.766C278.921 287.008 279.801 285.25 280.805 283.491C281.685 281.733 283.694 280.728 285.704 281.356C290.853 282.612 296.129 283.994 301.278 285.501C303.288 286.129 304.669 288.013 304.418 290.148C304.418 292.911 304.041 295.8 303.79 298.689C303.665 300.07 303.665 301.326 303.665 302.708C303.665 304.466 304.418 306.099 305.8 307.23C308.689 309.49 311.577 311.751 314.341 314.138C315.973 315.645 318.36 316.022 320.369 315.268C323.886 314.138 327.403 313.007 331.045 311.877C333.432 310.872 336.195 311.877 337.325 314.263C339.712 318.408 342.098 322.553 344.359 326.823C345.992 329.838 345.615 331.847 343.103 334.234C341.345 335.866 339.461 337.374 337.702 338.881C336.446 340.011 335.19 341.142 333.934 342.398C332.929 343.402 332.427 344.91 332.553 346.291C332.929 350.059 333.306 353.827 333.809 357.595C334.06 359.73 335.316 361.489 337.325 362.368C339.461 363.498 341.721 364.378 343.857 365.508C345.238 366.136 346.494 366.89 347.75 367.643C349.634 368.648 350.513 370.909 349.885 372.918C348.629 377.566 347.248 382.338 345.992 386.986C345.741 387.739 345.489 388.367 344.987 388.995C344.233 390.628 342.601 391.507 340.968 391.382C337.702 391.13 334.311 390.879 331.045 390.628C330.794 390.628 330.543 390.628 330.292 390.628C327.403 390.126 324.514 391.382 323.007 393.894C321.374 396.28 319.365 398.415 317.606 400.676C315.848 402.686 315.345 405.449 316.35 407.961C317.481 411.101 318.485 414.241 319.365 417.381C320.244 420.521 319.867 422.279 316.853 424.038C312.582 426.55 308.186 428.936 303.916 431.322C301.906 432.704 299.269 432.202 297.761 430.318C295.877 428.308 293.993 426.047 292.109 423.912C288.216 419.265 287.211 418.888 281.182 419.767C278.796 420.144 276.409 420.395 274.149 420.772C271.888 421.023 269.878 422.405 268.873 424.54C267.617 427.052 266.487 429.564 265.105 432.076C264.352 433.332 263.598 434.588 262.593 435.718C261.714 436.849 260.333 437.351 258.951 436.974C254.053 435.593 249.029 434.211 244.13 432.83C243.502 432.578 242.874 432.202 242.372 431.825C240.739 431.071 239.86 429.438 239.985 427.806C240.237 424.54 240.488 421.274 240.739 418.009C240.739 417.004 240.739 415.999 240.739 414.994C240.739 413.362 239.985 411.729 238.729 410.724C235.966 408.589 233.077 406.328 230.314 404.193C228.681 402.811 226.546 402.56 224.537 403.314C221.397 404.318 218.257 405.323 215.117 406.328C214.991 406.328 214.865 406.454 214.74 406.454C210.595 407.584 209.213 407.207 207.078 403.439C204.692 399.294 202.431 395.15 200.296 390.879C199.04 388.242 199.291 386.734 201.552 384.725C203.813 382.715 206.325 380.454 208.962 378.445C211.474 376.686 212.73 373.546 212.102 370.532C211.6 367.141 211.223 363.75 210.721 360.358C210.595 358.851 209.716 357.595 208.46 356.967C205.445 355.46 202.431 353.827 199.417 352.32C197.407 351.315 195.523 350.31 194.518 348.05V346.417H194.393ZM304.293 356.088C302.785 338.253 287.085 324.939 269.25 326.446C269.125 326.446 268.999 326.446 268.873 326.446C253.927 327.702 238.101 342.146 239.86 361.614C241.493 379.324 256.941 392.386 274.777 391.005C295.501 389.372 306.428 370.281 304.293 356.088Z"
          fill="#68E1FD" />
        <path
          d="M259.83 437.477C259.454 437.477 259.077 437.477 258.574 437.351L254.555 436.221C250.913 435.216 247.396 434.211 243.754 433.206C243.125 432.955 242.498 432.704 241.869 432.327L241.618 432.202C239.734 431.322 238.604 429.313 238.729 427.303L239.106 422.907C239.232 421.149 239.358 419.265 239.483 417.506C239.483 416.502 239.483 415.622 239.483 414.618C239.483 413.236 238.855 411.854 237.85 410.975C235.338 409.091 232.826 407.082 230.314 405.072L229.435 404.444C228.054 403.314 226.17 403.062 224.537 403.69C222.276 404.444 220.141 405.198 217.88 405.826L215.117 406.705L214.74 406.83C210.218 408.086 208.334 407.333 206.074 403.439C203.436 398.918 201.05 394.396 199.291 390.879C197.784 387.99 198.161 385.981 200.673 383.72C203.436 381.208 205.822 379.198 208.083 377.44C210.344 375.933 211.474 373.044 210.972 370.406C210.595 368.271 210.344 366.136 210.093 364.001C209.967 362.745 209.716 361.489 209.59 360.233C209.465 359.102 208.837 357.972 207.706 357.47C206.45 356.842 205.194 356.214 203.938 355.586C202.18 354.706 200.422 353.702 198.663 352.822C196.528 351.692 194.393 350.562 193.388 348.05C193.388 347.924 193.262 347.924 193.262 347.798L193.137 346.542C193.137 346.417 193.137 346.291 193.137 346.166L193.89 343.026C194.518 340.514 195.146 338.127 195.774 335.615C196.277 333.731 196.779 331.847 197.407 330.214C198.161 327.577 200.547 325.818 203.185 325.818H203.31C205.194 325.818 207.078 326.07 208.837 326.195C209.842 326.321 210.721 326.321 211.726 326.446L212.856 326.572C213.861 326.698 214.991 326.698 216.122 326.698C217.001 326.698 217.88 326.321 218.508 325.693C221.522 322.176 224.411 318.659 226.798 315.645C227.551 314.64 227.677 313.258 227.174 312.002C226.798 310.621 226.295 309.114 225.793 307.732C225.165 305.848 224.662 304.09 224.034 302.206C223.532 300.824 223.281 299.442 223.281 298.061C223.281 296.805 223.783 295.549 224.662 294.795C229.561 291.027 234.962 287.887 240.739 285.752C242.749 284.873 245.135 285.501 246.517 287.259C247.27 288.264 248.15 289.143 249.029 290.022C250.536 291.781 252.169 293.539 253.55 295.298C254.932 297.182 257.193 298.186 259.579 297.684C261.966 297.307 264.352 297.056 266.613 296.679C267.869 296.554 269.125 296.428 270.506 296.177C271.637 296.051 272.516 295.298 273.018 294.293C273.646 293.037 274.274 291.906 275.028 290.65C275.53 289.771 275.907 289.018 276.41 288.138L276.912 287.134C277.666 285.626 278.419 284.245 279.298 282.738C280.429 280.602 282.815 279.598 285.201 280.226C291.481 281.858 296.254 283.114 300.776 284.37C303.162 285.124 304.795 287.385 304.544 289.897C304.544 291.781 304.293 293.665 304.167 295.549C304.042 296.554 304.042 297.433 303.916 298.438C303.79 299.694 303.79 301.075 303.79 302.331C303.79 303.838 304.418 305.22 305.549 306.099L307.558 307.732C309.694 309.49 311.954 311.249 314.215 313.133C315.597 314.389 317.606 314.766 319.49 314.138C321.249 313.635 323.007 313.007 324.64 312.505C326.273 312.002 328.282 311.374 330.041 310.746C333.306 309.742 335.693 310.621 337.326 313.51C339.712 317.654 342.098 321.799 344.359 326.07C346.243 329.461 345.741 331.847 342.977 334.485C341.973 335.49 340.842 336.369 339.837 337.248C339.084 337.876 338.33 338.504 337.577 339.132C336.195 340.388 335.065 341.518 333.934 342.649C333.055 343.528 332.678 344.658 332.804 345.789L333.055 348.05C333.432 351.064 333.683 354.078 334.06 357.093C334.186 358.851 335.442 360.484 337.074 361.112C337.954 361.614 338.958 361.991 339.837 362.368C341.093 362.996 342.349 363.624 343.605 364.252C344.987 364.88 346.369 365.634 347.625 366.513C349.886 367.769 350.89 370.406 350.137 372.793C348.881 377.566 347.499 382.213 346.243 386.86C345.992 387.614 345.741 388.242 345.364 388.87L345.238 388.995C344.359 390.879 342.35 392.01 340.34 391.758L333.432 391.256L330.041 391.005H329.413C326.901 390.502 324.263 391.758 323.007 393.894C321.877 395.526 320.495 397.159 319.239 398.666C318.737 399.294 318.109 399.922 317.606 400.676C316.099 402.434 315.722 404.946 316.476 407.082C317.481 410.096 318.611 413.236 319.616 416.502C320.746 420.27 319.993 422.154 316.727 424.163C312.834 426.424 308.563 428.81 303.665 431.448C301.278 432.955 298.138 432.453 296.506 430.192C294.873 428.434 293.366 426.675 291.858 424.917L290.854 423.786C287.085 419.39 286.458 419.139 280.68 419.893L276.661 420.521L273.646 420.898C271.637 421.023 269.878 422.279 268.999 424.163L267.743 426.675C266.99 428.308 266.11 430.066 265.231 431.699C264.478 433.081 263.724 434.337 262.719 435.467C262.342 436.849 261.086 437.477 259.83 437.477ZM226.546 401.555C228.054 401.555 229.435 402.058 230.691 403.062L231.57 403.69C234.082 405.7 236.594 407.584 239.106 409.594C240.614 410.724 241.493 412.608 241.493 414.492C241.493 415.497 241.493 416.502 241.493 417.632C241.367 419.516 241.242 421.274 241.116 423.033C240.99 424.54 240.865 426.047 240.739 427.429C240.614 428.81 241.367 430.066 242.623 430.694L242.874 430.82C243.377 431.071 243.879 431.322 244.382 431.448C248.024 432.453 251.541 433.458 255.183 434.462L259.202 435.593C260.207 435.844 261.338 435.467 261.965 434.588C262.845 433.458 263.598 432.327 264.352 431.071C265.231 429.438 265.985 427.806 266.864 426.173C267.241 425.294 267.618 424.414 268.12 423.661C269.25 421.274 271.511 419.767 274.023 419.39L277.037 418.888L281.057 418.26C287.337 417.381 288.593 417.883 292.737 422.782L293.742 423.912C295.25 425.67 296.757 427.429 298.264 429.187C299.394 430.82 301.655 431.197 303.288 430.066C308.061 427.554 312.331 425.168 316.225 422.782C318.862 421.274 319.239 420.144 318.36 417.13C317.355 413.864 316.35 410.724 315.345 407.71C314.215 404.946 314.843 401.806 316.727 399.546C317.229 398.918 317.858 398.164 318.36 397.536C319.616 396.029 320.872 394.396 322.128 392.889C323.886 390.126 327.026 388.618 330.292 389.246C330.418 389.246 330.543 389.246 330.669 389.246L334.06 389.498L340.968 390C342.35 390.126 343.605 389.372 344.233 388.116L344.359 387.99C344.736 387.488 344.987 386.86 345.113 386.358C346.494 381.71 347.75 376.938 349.006 372.29C349.509 370.658 348.755 368.774 347.248 368.02C345.992 367.266 344.736 366.513 343.354 365.885C342.098 365.257 340.842 364.629 339.586 364.001L336.823 362.745C334.688 361.74 333.181 359.73 332.929 357.344C332.553 354.33 332.176 351.315 331.925 348.301L331.673 346.04C331.422 344.282 332.05 342.649 333.306 341.393C334.437 340.262 335.693 339.006 337.074 337.75C337.828 337.122 338.581 336.494 339.335 335.866C340.34 334.987 341.47 334.108 342.475 333.103C344.736 330.968 344.987 329.461 343.605 326.823C341.345 322.678 338.958 318.408 336.572 314.263C335.693 312.254 333.306 311.374 331.297 312.254C329.538 312.756 327.654 313.384 325.896 314.012L320.621 315.645C318.234 316.524 315.597 316.022 313.713 314.263C311.578 312.379 309.317 310.621 307.181 308.988L305.172 307.481C303.539 306.225 302.66 304.341 302.785 302.331C302.785 300.95 302.911 299.568 302.911 298.312C303.037 297.307 303.037 296.428 303.162 295.423C303.288 293.539 303.539 291.655 303.539 289.897C303.665 288.264 302.66 286.631 301.027 286.129C296.506 284.873 291.733 283.617 285.453 281.984C283.946 281.482 282.187 282.235 281.559 283.742C280.68 285.124 279.926 286.506 279.173 288.013L278.67 289.018C278.168 289.897 277.791 290.65 277.289 291.53C276.661 292.786 276.033 294.042 275.279 295.172C274.526 296.679 273.144 297.684 271.511 297.935C270.255 298.061 268.999 298.312 267.618 298.438C265.357 298.689 262.97 299.066 260.584 299.442C257.695 299.945 254.806 298.814 253.048 296.428C251.541 294.67 250.034 292.911 248.526 291.153C247.647 290.148 246.894 289.269 246.014 288.264C245.135 287.008 243.502 286.631 242.121 287.259C236.469 289.394 231.194 292.283 226.546 296.051C226.044 296.554 225.793 297.307 225.793 297.935C225.793 299.191 226.044 300.447 226.421 301.578C226.923 303.462 227.551 305.22 228.054 306.978C228.556 308.486 228.933 309.867 229.435 311.374C230.063 313.133 229.812 315.142 228.681 316.65C226.295 319.664 223.406 323.306 220.266 326.823C219.262 327.702 218.006 328.33 216.75 328.33C215.619 328.456 214.363 328.33 213.233 328.205L212.102 328.079L209.214 327.828C207.455 327.702 205.571 327.451 203.813 327.451C201.803 327.326 200.045 328.707 199.542 330.591C199.04 332.224 198.412 334.108 197.91 335.992C197.282 338.504 196.654 340.89 196.026 343.402L195.272 346.417L195.398 347.422C196.277 349.18 197.91 350.185 199.794 351.064C201.678 351.943 203.31 352.948 205.069 353.827L208.837 355.711C210.344 356.465 211.474 357.972 211.6 359.73C211.726 360.986 211.977 362.242 212.102 363.624C212.354 365.759 212.605 367.894 212.982 369.904C213.61 373.295 212.228 376.686 209.465 378.57C207.204 380.329 204.943 382.338 202.18 384.725C200.296 386.483 200.045 387.614 201.175 389.749C202.934 393.266 205.32 397.787 207.958 402.309C209.842 405.574 210.846 405.951 214.614 404.946L214.866 404.821L217.629 403.942C219.89 403.188 222.025 402.56 224.286 401.806C225.039 401.681 225.793 401.555 226.546 401.555ZM272.139 392.135C254.932 392.01 240.614 378.947 239.106 361.74C238.353 352.948 241.116 344.282 246.894 337.499C258.449 323.432 279.173 321.297 293.365 332.852C300.399 338.63 304.669 346.919 305.297 355.962C306.428 363.75 303.916 372.542 298.389 379.45C292.612 386.734 284.071 391.256 274.777 391.884C273.898 392.135 273.018 392.135 272.139 392.135ZM271.888 327.326C271.009 327.326 270.004 327.326 269.125 327.451C260.961 328.33 253.425 332.475 248.275 338.755C242.874 345.035 240.237 353.325 240.99 361.614C242.498 378.947 257.821 391.758 275.279 390.251C283.82 389.498 291.733 385.227 297.133 378.445C302.283 371.914 304.795 363.498 303.665 356.214C302.283 339.76 288.342 327.074 271.888 327.326Z"
          fill="#231F20" />
        <path
          d="M220.517 124.23L221.27 124.984C221.773 125.486 221.898 126.366 221.396 126.868L209.841 139.93C209.338 140.433 208.459 140.558 207.957 140.056L207.203 139.302C206.701 138.8 206.575 137.921 207.078 137.418L218.633 124.356C219.135 123.854 220.014 123.728 220.517 124.23Z"
          fill="#231F20" />
        <path
          d="M208.836 141.061C208.208 141.061 207.454 140.81 206.952 140.307C205.822 139.302 205.696 137.544 206.701 136.414L217.502 124.23C218.507 123.1 220.266 122.974 221.396 123.979C221.898 124.482 222.275 125.11 222.275 125.863C222.275 126.617 222.024 127.37 221.522 127.873L210.594 140.056C210.092 140.558 209.464 140.935 208.71 140.935L208.836 141.061ZM219.638 124.984C219.386 124.984 219.01 125.11 218.884 125.361L207.957 137.544C207.831 137.795 207.706 138.046 207.706 138.298C207.706 138.549 207.831 138.8 208.082 139.051C208.459 139.428 209.087 139.428 209.464 138.926L220.391 126.742C220.517 126.491 220.642 126.24 220.642 125.989C220.642 125.738 220.517 125.486 220.266 125.235C220.14 125.11 219.889 124.984 219.638 124.984Z"
          fill="#231F20" />
        <path
          d="M220.894 125.486C220.642 125.486 220.517 125.361 220.266 125.235C219.889 124.858 219.889 124.356 220.14 123.979L230.565 112.173C230.816 111.796 231.444 111.796 231.821 112.047C232.197 112.424 232.198 112.926 231.946 113.303L221.522 125.11C221.396 125.361 221.145 125.486 220.894 125.486Z"
          fill="#231F20" />
        <path
          d="M231.821 114.685H229.812L229.561 112.801L233.329 109.033L234.208 109.786L235.087 110.54L231.821 114.685Z"
          fill="#231F20" />
        <path
          d="M197.532 136.665L204.817 134.153C204.817 134.153 210.971 126.24 213.106 126.24C215.241 126.24 211.097 132.269 211.348 132.394C211.599 132.52 221.27 127.747 221.773 130.134C222.275 132.52 219.512 137.167 217.879 138.298C216.246 139.428 197.406 147.09 197.406 147.09L197.532 136.665Z"
          fill="white" />
        <path
          d="M197.532 148.094C197.406 148.094 197.155 148.094 197.029 147.969C196.778 147.843 196.652 147.592 196.652 147.215V136.665C196.652 136.288 196.904 135.911 197.28 135.786L204.314 133.399C205.947 131.264 210.72 125.361 213.106 125.361C213.608 125.361 214.111 125.612 214.362 126.114C214.99 127.119 214.236 128.752 213.106 130.887C216.748 129.38 220.265 128.124 221.772 129.003C222.149 129.254 222.526 129.631 222.652 130.134C223.28 133.022 220.14 137.921 218.381 139.177C216.623 140.433 199.667 147.341 197.783 148.094C197.657 148.094 197.657 148.094 197.532 148.094ZM198.411 137.293V145.959C205.821 142.945 216.372 138.549 217.376 137.67C218.884 136.665 221.396 132.269 220.893 130.385C220.391 130.134 217.879 130.762 213.483 132.646C211.724 133.399 211.473 133.525 210.971 133.274C210.72 133.148 210.594 133.022 210.468 132.771C210.343 132.269 210.468 131.892 211.222 130.636C211.85 129.506 212.352 128.375 212.729 127.245C211.473 127.622 208.333 130.887 205.319 134.781C205.193 134.906 205.068 135.032 204.942 135.032L198.411 137.293Z"
          fill="#231F20" />
        <path
          d="M82.6067 273.443C82.6067 273.82 81.6019 284.119 82.6067 284.119C83.6115 284.119 92.4035 285.878 92.4035 285.878V273.569L82.6067 273.443Z"
          fill="white" />
        <path
          d="M92.4049 286.631H92.2793C88.0089 285.878 83.2361 284.998 82.6081 284.998C82.3569 284.998 81.9801 284.873 81.8545 284.622C81.3521 284.119 80.9753 282.863 81.7289 274.197C81.7289 273.82 81.7289 273.569 81.8545 273.443C81.8545 272.941 82.2313 272.564 82.7337 272.564H92.5305C93.0329 272.564 93.4097 272.941 93.4097 273.443V285.752C93.4097 286.003 93.2841 286.254 93.0329 286.38C92.7817 286.506 92.6561 286.631 92.4049 286.631ZM83.1105 283.24C84.7433 283.491 89.2649 284.245 91.5257 284.747V274.322H83.3617C82.9849 280.351 82.9849 282.486 83.1105 283.24Z"
          fill="#231F20" />
        <path
          d="M75.9501 154.626C75.8245 155.63 79.8438 251.589 82.1046 275.83C82.1046 275.83 91.5245 278.09 92.6549 278.09C93.7853 278.09 108.983 175.098 108.983 175.098L75.9501 154.626Z"
          fill="#231F20" />
        <path
          d="M92.6551 278.844C91.5247 278.844 83.4863 276.96 81.8535 276.583C81.4767 276.458 81.2255 276.206 81.2255 275.83C79.0903 252.719 74.9456 155.882 75.0712 154.5C75.1968 153.998 75.5736 153.746 76.076 153.746C76.2016 153.746 76.3272 153.746 76.4528 153.872L109.486 174.219C109.737 174.345 109.988 174.722 109.862 175.098C109.862 175.35 105.969 201.223 102.075 226.594C94.0367 278.844 93.6599 278.844 92.6551 278.844ZM82.8583 275.076C86.6263 275.955 90.5199 276.834 92.0271 277.086C93.6599 270.806 102.326 213.909 107.978 175.475L76.704 156.258C77.2064 168.693 80.8487 252.217 82.8583 275.076Z"
          fill="#231F20" />
        <path
          d="M108.983 226.218C108.983 226.218 102.075 234.382 101.195 237.647L111.243 238.903C111.243 238.903 120.412 228.604 120.915 228.478C121.417 228.353 108.983 226.218 108.983 226.218Z"
          fill="white" />
        <path
          d="M111.244 239.782L101.07 238.526C100.819 238.526 100.568 238.401 100.442 238.15C100.316 237.898 100.316 237.647 100.316 237.396C101.196 234.005 107.978 225.966 108.229 225.59C108.48 225.338 108.732 225.213 109.108 225.338C121.668 227.474 121.668 227.474 121.668 228.353C121.668 228.73 121.543 228.981 121.292 229.232C120.538 229.86 115.137 235.889 111.872 239.531C111.62 239.657 111.369 239.782 111.244 239.782ZM102.452 236.894L110.992 238.024C115.64 232.874 118.026 230.237 119.282 228.981C117.021 228.478 112.625 227.725 109.485 227.222C106.722 230.111 104.336 233.377 102.452 236.894Z"
          fill="#231F20" />
        <path
          d="M80.0949 137.167C80.0949 137.167 71.8053 160.906 77.0805 170.326C82.3557 179.746 135.987 190.296 135.987 190.296L105.717 227.222L116.268 230.99C116.268 230.99 163.368 218.556 167.261 201.6C171.155 184.644 123.301 154.374 123.301 154.374"
          fill="#231F20" />
        <path
          d="M116.142 232.121C116.017 232.121 115.891 232.121 115.891 232.121L105.341 228.353C104.838 228.227 104.587 227.725 104.838 227.222C104.838 227.097 104.964 226.971 104.964 226.971L134.354 191.05C125.562 189.291 81.3512 179.746 76.3272 170.954C70.9264 161.282 78.9648 138.046 79.3416 137.042C79.4672 136.539 79.9697 136.288 80.4721 136.539C80.9745 136.665 81.2256 137.167 80.9744 137.67C80.8488 137.921 72.8105 161.157 77.9601 170.2C82.1049 177.61 121.418 186.905 136.238 189.794C136.49 189.794 136.741 190.045 136.866 190.296C136.992 190.547 136.866 190.924 136.741 191.175L107.225 227.222L116.268 230.488C120.036 229.483 162.74 217.426 166.382 201.726C170.15 185.523 123.176 155.756 122.799 155.505C122.422 155.254 122.297 154.626 122.548 154.249C122.799 153.872 123.302 153.746 123.804 153.998C125.814 155.254 172.286 184.644 168.141 202.102C163.996 219.561 118.403 231.744 116.519 232.246L116.142 232.121Z"
          fill="#231F20" />
        <path
          d="M134.983 77.7585C131.341 76.8793 127.95 74.8697 125.312 72.2321C124.056 71.1017 123.303 69.4689 122.926 67.8361C122.675 66.0777 123.554 64.4448 125.061 63.6912C123.428 62.6864 122.423 60.9281 122.423 59.0441C122.298 57.1601 122.8 55.276 123.679 53.6432C124.81 51.508 126.568 49.3728 129.08 49.2472C128.201 47.3632 127.196 45.2281 128.075 43.344C128.578 42.4648 129.206 41.5856 130.085 41.0832C131.592 39.8272 133.351 38.6968 135.109 37.692C136.114 37.1896 137.37 36.6872 138.123 37.3152C139.128 33.4216 142.268 30.4072 146.162 29.6536C148.046 29.2768 150.055 29.4024 151.814 30.2816C153.572 31.412 155.205 32.7936 156.712 34.1752C159.475 33.296 163.997 33.924 166.132 36.0592C168.016 37.9432 168.644 40.7065 167.891 43.2185C169.9 44.3489 171.659 45.8561 173.166 47.74C174.547 49.6241 175.05 52.0104 174.422 54.2712C173.794 56.532 171.659 58.1648 169.272 58.0392C171.156 60.0488 171.407 63.1889 169.649 65.3241C167.891 67.4593 165.002 68.2128 162.364 67.3336C161.987 67.208 161.611 67.0825 161.234 67.0825C160.731 67.2081 160.355 67.4593 160.103 67.8361C158.973 68.7153 157.466 68.4641 156.21 69.0921C154.451 70.0969 152.944 71.3529 151.437 72.6089C149.93 73.7393 148.297 74.744 146.539 75.6232C144.655 76.628 143.022 78.2609 140.887 78.8889C139.128 79.5169 137.998 78.6376 136.365 78.1353L134.983 77.7585Z"
          fill="white" />
        <path
          d="M139.63 80.0192C138.751 80.0192 137.997 79.768 137.244 79.5168C136.867 79.3912 136.49 79.2656 136.113 79.14L134.857 78.7632C131.089 77.7584 127.573 75.7488 124.809 72.86C123.428 71.604 122.549 69.8456 122.172 67.9616C121.921 66.3288 122.549 64.696 123.679 63.5656C122.423 62.3096 121.795 60.8024 121.669 59.044C121.544 57.0344 122.046 55.0248 123.051 53.2664C123.93 51.1312 125.689 49.4984 127.949 48.6192C126.945 46.8608 126.819 44.8512 127.447 43.0928C127.949 42.088 128.703 41.0832 129.708 40.4552C131.341 39.0736 133.099 37.9432 134.857 36.9384C135.737 36.436 136.741 36.1848 137.746 36.1848C139.128 32.4168 142.268 29.6536 146.287 28.7744C148.422 28.272 150.557 28.5232 152.567 29.4024C154.2 30.5328 155.707 31.7888 157.214 33.1704C160.229 32.4168 164.625 33.1704 167.011 35.4312C168.895 37.3152 169.774 40.0784 169.272 42.8416C171.156 43.972 172.914 45.4792 174.17 47.2376C175.677 49.3728 176.305 52.0104 175.552 54.5224C174.924 56.532 173.291 58.1648 171.281 58.7928C172.537 61.0536 172.286 63.9424 170.653 65.952C168.644 68.3384 165.378 69.2176 162.364 68.2128C162.113 68.0872 161.861 68.0872 161.736 68.0872C161.485 68.2128 161.359 68.3384 161.233 68.464L160.982 68.7152C160.229 69.2176 159.349 69.5944 158.345 69.72C157.842 69.72 157.34 69.8456 156.963 70.0968C155.833 70.7248 154.828 71.4784 153.823 72.3576C153.321 72.7344 152.818 73.2368 152.316 73.6136C150.683 74.8696 148.925 75.8744 147.417 76.7536C146.789 77.1304 146.287 77.5072 145.659 77.884C144.403 78.7632 143.147 79.5168 141.64 80.0192C140.635 79.8936 140.133 80.0192 139.63 80.0192ZM135.234 77.0048L136.49 77.3816C136.993 77.5072 137.369 77.6328 137.746 77.7584C138.625 78.2608 139.63 78.2608 140.635 78.0096C141.891 77.5072 143.147 76.8792 144.152 76C144.78 75.6232 145.408 75.1208 146.036 74.744C147.669 73.8648 149.301 72.86 150.809 71.7296C151.311 71.3528 151.813 70.976 152.316 70.5992C153.321 69.72 154.577 68.8408 155.833 68.2128C156.461 67.9616 157.089 67.7104 157.717 67.7104C158.345 67.7104 158.973 67.4592 159.475 67.0824L159.601 66.9568C159.977 66.58 160.48 66.3288 160.982 66.2032C161.485 66.2032 161.987 66.2032 162.364 66.4544C164.625 67.3336 167.262 66.58 168.769 64.8216C170.151 62.9376 170.025 60.4256 168.518 58.6672C168.267 58.416 168.141 58.0392 168.267 57.6624C168.393 57.4112 168.769 57.16 169.146 57.16C171.156 57.16 172.789 55.904 173.417 54.02C173.919 52.0104 173.542 49.8752 172.286 48.2424C170.905 46.484 169.272 45.1024 167.388 44.0976C167.011 43.8464 166.885 43.4696 167.011 43.0928C167.639 40.832 167.011 38.4456 165.378 36.8128C163.494 34.9288 159.349 34.4264 156.837 35.18C156.461 35.3056 155.958 35.0544 155.707 34.6776C154.325 33.4216 152.944 32.2912 151.437 31.1608C149.804 30.4072 148.045 30.2816 146.287 30.6584C142.77 31.412 139.881 34.1752 139.002 37.5664C138.877 37.8176 138.751 38.0688 138.5 38.1944C138.249 38.32 137.872 38.1944 137.621 38.0688C137.118 37.692 136.239 38.0688 135.485 38.4456C133.727 39.4504 132.094 40.4552 130.587 41.7112C129.833 42.2136 129.205 42.9672 128.829 43.7208C128.201 45.228 128.954 47.2376 129.833 48.8704C129.959 49.1216 129.959 49.4984 129.833 49.7496C129.708 50.0008 129.457 50.1264 129.08 50.1264C126.568 50.252 125.061 52.8896 124.433 54.02C123.553 55.5272 123.177 57.16 123.302 58.9184C123.428 60.5512 124.181 61.9328 125.563 62.9376C125.814 63.0632 126.065 63.44 126.065 63.8168C126.065 64.1936 125.814 64.4448 125.563 64.5704C124.433 65.1984 123.679 66.4544 123.93 67.836C124.181 69.3432 124.935 70.7248 126.065 71.7296C128.577 74.2416 131.843 76.1256 135.234 77.0048Z"
          fill="#231F20" />
        <path
          d="M161.108 68.4641C161.108 68.4641 163.871 77.5072 162.364 78.7632C160.857 80.0192 157.717 78.0096 157.717 78.0096"
          fill="white" />
        <path
          d="M161.108 80.1448C159.726 80.0192 158.344 79.5168 157.214 78.7632C156.837 78.512 156.712 78.0096 156.963 77.5072C157.214 77.0048 157.716 77.0048 158.219 77.256C159.224 77.884 161.108 78.6376 161.861 78.1352C162.364 77.5072 161.61 73.1112 160.354 68.7152C160.103 68.2128 160.354 67.7104 160.856 67.5848C161.359 67.3336 161.861 67.5848 161.987 68.0872V68.2128C163.117 71.8552 164.75 78.0096 162.992 79.5168C162.489 79.8936 161.861 80.1448 161.108 80.1448Z"
          fill="#231F20" />
        <path
          d="M164.373 51.3825C164.75 51.7593 165.001 52.2616 165.127 52.8896C165.378 54.8992 165.378 56.9089 164.876 58.9185C164.122 62.8121 163.117 66.7056 161.861 70.4736C160.354 75.4977 158.721 80.5217 156.963 85.4201C155.832 88.5601 147.543 86.1737 146.412 84.7921L144.026 97.8544C144.026 97.8544 139.756 97.7289 133.978 92.7049C128.2 87.6809 128.577 86.0481 128.577 86.0481L133.35 71.6041C133.35 71.6041 138.876 73.2369 143.9 67.7105C144.654 66.8313 145.408 65.3241 146.412 64.5705C147.543 63.6913 149.05 63.9425 150.055 62.6865C151.06 61.5561 151.436 59.9233 151.06 58.4161C150.934 58.1649 150.934 57.6625 151.185 57.5369C151.311 57.4113 151.562 57.4112 151.688 57.4112C153.948 56.9088 155.33 54.7737 154.953 52.6385C157.088 53.2665 159.098 51.6337 160.605 50.0009C160.103 50.5033 163.871 51.1312 163.871 51.1312C163.996 51.1312 164.248 51.2569 164.373 51.3825Z"
          fill="white" />
        <path
          d="M143.9 98.7336C143.649 98.7336 139.253 98.608 133.224 93.3328C127.698 88.4344 127.447 86.4248 127.572 85.7968L132.471 71.3528C132.596 70.8504 133.099 70.5992 133.601 70.8504C133.852 70.8504 138.625 72.232 143.272 67.208C143.649 66.8312 143.9 66.4544 144.151 65.952C144.654 65.1984 145.156 64.4448 145.91 63.8168C146.412 63.44 147.04 63.1888 147.668 63.0632C148.296 62.9376 148.924 62.5608 149.427 62.0584C150.18 61.0536 150.557 59.7976 150.18 58.6672C149.929 58.0392 150.055 57.4112 150.557 56.9088C150.808 56.6576 151.185 56.532 151.562 56.532C152.441 56.4064 153.195 55.904 153.571 55.1504C154.074 54.3968 154.199 53.6432 154.074 52.764C153.948 52.5128 154.074 52.136 154.325 51.8848C154.576 51.6336 154.827 51.6336 155.204 51.6336C156.837 52.136 158.595 50.6288 159.977 49.2472C160.354 48.8704 160.856 48.8704 161.233 49.2472C161.359 49.3728 161.359 49.3728 161.359 49.4984C162.238 49.7496 162.991 50.0008 163.871 50.1264C163.996 50.1264 164.122 50.1264 164.122 50.252C164.499 50.3776 164.75 50.5032 165.001 50.7544C165.503 51.2568 165.88 52.0104 166.006 52.764C166.383 54.8992 166.257 57.0344 165.755 59.1696C165.001 62.812 164.122 66.3288 162.991 69.8456L162.615 70.976C161.107 76 159.475 81.024 157.716 86.048C157.214 87.1784 156.209 87.932 154.953 88.0576C152.19 88.3088 149.427 87.8064 146.915 86.5504L144.779 98.2312C144.654 98.4824 144.277 98.8592 143.9 98.7336ZM129.331 86.1736C129.456 86.5504 129.959 88.1832 134.355 92.0768C136.867 94.4632 139.881 96.096 143.147 96.8496L145.407 84.792C145.533 84.2896 145.91 84.0384 146.412 84.0384C146.663 84.0384 146.789 84.164 146.915 84.2896C147.543 85.0432 151.939 86.5504 154.576 86.048C155.33 85.9224 155.832 85.5456 155.958 85.1688C157.716 80.2704 159.349 75.2464 160.856 70.2224L161.233 69.092C162.363 65.7008 163.243 62.184 163.871 58.7928C164.373 56.9088 164.373 55.0248 164.122 53.1408C163.996 52.5128 163.871 52.2616 163.745 52.136C163.619 52.0104 163.494 52.0104 163.368 51.8848C162.363 51.7592 161.359 51.508 160.354 51.1312C159.098 52.5128 157.465 53.392 155.707 53.5176C155.707 54.3968 155.33 55.276 154.827 56.1552C154.074 57.2856 152.943 58.0392 151.687 58.2904C152.064 60.0488 151.687 61.9328 150.557 63.3144C149.929 64.068 149.05 64.5704 148.045 64.8216C147.543 64.9472 147.166 65.1984 146.789 65.4496C146.287 65.952 145.91 66.4544 145.533 67.0824C145.282 67.5848 144.905 68.0872 144.528 68.464C140.258 73.1112 135.736 73.1112 133.852 72.7344L129.331 86.1736Z"
          fill="#231F20" />
        <path d="M157.841 81.652C154.827 81.4008 152.441 78.8889 152.189 75.8745L157.841 81.652Z" fill="white" />
        <path
          d="M157.841 82.5312C154.324 82.28 151.686 79.5168 151.309 76C151.184 75.4976 151.561 75.1208 152.063 74.9952C152.566 74.8696 152.942 75.2464 153.068 75.7488C153.194 78.3864 155.203 80.5216 157.841 80.7728C158.343 80.7728 158.72 81.1496 158.72 81.652C158.846 82.1544 158.469 82.6568 157.841 82.5312Z"
          fill="#231F20" />
        <path
          d="M150.558 68.8408C150.809 67.5848 150.683 66.2032 150.181 64.9472C149.93 63.9424 149.553 63.0632 149.05 62.184C148.548 61.3048 147.543 60.6768 146.538 60.5512C145.659 60.5512 144.78 60.928 144.152 61.556C143.524 62.184 143.022 63.0632 142.77 63.8168C141.514 67.5848 142.268 71.8552 144.906 74.8696L144.78 74.4928"
          fill="white" />
        <path
          d="M144.905 75.7488C144.654 75.7488 144.403 75.6232 144.277 75.4976C141.388 72.232 140.509 67.7104 141.891 63.5656C142.267 62.5608 142.77 61.6816 143.398 60.928C144.151 60.0488 145.407 59.672 146.538 59.672C147.794 59.7976 149.05 60.5512 149.678 61.6816C150.306 62.6864 150.683 63.6912 150.934 64.696C151.436 66.0776 151.562 67.5848 151.311 69.092C151.185 69.5944 150.683 69.8456 150.18 69.72C149.678 69.5944 149.427 69.092 149.552 68.5896C149.678 67.4592 149.552 66.3288 149.175 65.1984C148.924 64.3192 148.547 63.44 148.171 62.5608C147.794 61.9328 147.166 61.4304 146.412 61.3048C145.784 61.3048 145.156 61.556 144.654 62.0584C144.151 62.6864 143.775 63.3144 143.523 64.068C142.393 67.3336 143.021 70.8504 145.031 73.6136C145.282 73.7392 145.407 73.8648 145.533 73.9904L145.659 74.3672C145.91 74.744 145.784 75.2464 145.407 75.4976C145.156 75.7488 145.031 75.7488 144.905 75.7488Z"
          fill="#231F20" />
        <path
          d="M146.287 84.9177C146.287 84.9177 142.394 82.28 141.263 78.7632C141.263 78.7632 139.254 86.5504 145.157 90.6952L146.287 84.9177Z"
          fill="#231F20" />
        <path
          d="M145.282 91.5744C145.156 91.5744 144.905 91.5744 144.78 91.4488C138.374 87.0528 140.384 78.8888 140.509 78.6376C140.635 78.2608 140.886 78.0096 141.388 78.0096C141.765 78.0096 142.142 78.2608 142.268 78.6376C143.272 81.7776 146.915 84.2897 146.915 84.2897C147.166 84.5409 147.292 84.792 147.292 85.1688L146.161 90.9464C146.161 91.1976 145.91 91.4488 145.659 91.5744C145.408 91.5744 145.408 91.5744 145.282 91.5744ZM141.765 81.7777C141.64 84.5409 142.644 87.1784 144.528 89.0624L145.282 85.2944C144.026 84.2896 142.77 83.1593 141.765 81.7777Z"
          fill="#231F20" />
        <path
          d="M159.4 63.3767C159.73 62.3899 159.677 61.4829 159.283 61.3509C158.888 61.219 158.3 61.9119 157.97 62.8988C157.641 63.8856 157.693 64.7925 158.088 64.9245C158.482 65.0565 159.07 64.3635 159.4 63.3767Z"
          fill="#231F20" />
        <path
          d="M151.813 97.8544C150.934 95.3424 134.857 76.1256 123.177 80.7728C111.496 85.42 86.8781 120.965 80.0957 137.167L124.307 158.268C124.307 158.394 156.335 111.67 151.813 97.8544Z"
          fill="#68E1FD" />
        <path
          d="M132.596 123.979C132.596 123.979 136.615 145.834 151.813 152.239C167.01 158.645 200.169 149.602 200.169 149.602V132.897C200.169 132.897 179.444 141.186 169.271 132.897C159.097 124.607 151.813 97.8544 151.813 97.8544L132.596 123.979Z"
          fill="#68E1FD" />
        <path
          d="M101.195 237.647C101.195 237.647 95.9199 247.318 97.4271 248.198C98.9343 249.077 121.417 248.323 120.914 247.067C120.412 245.811 111.243 238.903 111.243 238.903L101.195 237.647Z"
          fill="#231F20" />
        <path
          d="M103.834 249.579C100.317 249.579 97.5542 249.454 96.9262 248.951C96.2982 248.449 94.6654 247.57 100.443 237.145C100.569 236.768 100.945 236.642 101.322 236.642L111.37 237.898C111.496 237.898 111.621 238.024 111.747 238.024C114.51 240.159 121.167 245.183 121.669 246.565C121.795 246.942 121.669 247.444 121.293 247.695C120.162 248.826 110.617 249.579 103.834 249.579ZM97.931 247.444C100.192 248.072 115.641 247.57 119.534 246.69C116.771 244.178 113.882 241.918 110.868 239.657L101.699 238.526C99.6894 242.169 97.8054 246.314 97.931 247.444Z"
          fill="#231F20" />
        <path
          d="M82.6076 283.994C82.6076 283.994 81.1004 294.167 82.1052 294.795C83.11 295.423 107.476 294.921 106.346 292.911C105.216 290.902 92.4044 285.626 92.4044 285.626L82.6076 283.994Z"
          fill="#231F20" />
        <path
          d="M88.0077 295.926C85.8725 296.051 83.8629 295.926 81.7277 295.549C81.2253 295.298 80.2205 294.67 81.7277 283.868C81.7277 283.366 82.2301 283.114 82.7325 283.114L92.5293 284.873H92.6549C95.6693 286.129 105.843 290.399 106.973 292.409C107.224 292.911 107.099 293.414 106.722 293.79C105.466 295.423 95.0413 295.926 88.0077 295.926ZM82.8581 294.042C85.2445 294.418 101.572 294.042 105.215 292.911C103.456 291.53 97.5533 288.766 92.2781 286.631L83.4861 285.124C82.9837 288.138 82.7325 291.027 82.8581 294.042Z"
          fill="#231F20" />
        <path
          d="M107.602 184.393C107.476 184.393 107.476 184.393 107.35 184.393C106.346 184.016 82.984 175.852 76.704 170.954C76.4528 170.702 76.4528 170.326 76.704 170.074C76.9552 169.823 77.2064 169.823 77.4576 169.949C83.612 174.596 107.602 183.011 107.853 183.137C108.23 183.262 108.355 183.639 108.23 184.016C108.104 184.267 107.978 184.393 107.602 184.393Z"
          fill="white" />
        <path
          d="M168.768 155.882C165.879 155.882 162.613 155.756 159.222 155.505C137.368 153.621 127.948 119.96 127.571 118.578C127.445 118.076 127.697 117.574 128.199 117.448C128.701 117.322 129.204 117.574 129.329 118.076C129.455 118.453 138.875 151.988 159.473 153.746C180.449 155.505 192.004 150.732 192.129 150.732C192.632 150.606 193.134 150.732 193.26 151.234C193.511 151.737 193.26 152.239 192.757 152.365C192.255 152.49 184.091 155.882 168.768 155.882Z"
          fill="#231F20" />
        <path
          d="M164.749 128.878C164.498 128.878 164.247 128.752 163.995 128.501C161.735 125.738 152.566 107.4 151.31 100.869C150.179 95.0912 146.788 92.8304 146.788 92.8304C146.411 92.5792 146.286 91.9512 146.537 91.5744C146.788 91.1976 147.291 91.072 147.667 91.3232C147.793 91.4488 151.687 93.9608 152.943 100.618C154.199 106.898 163.367 124.984 165.377 127.496C165.628 127.873 165.628 128.375 165.251 128.752C165.126 128.752 164.875 128.878 164.749 128.878Z"
          fill="#231F20" />
      </svg>